<svg xmlns="http://www.w3.org/2000/svg" viewBox="0 0 1634.05 264.58"><defs><style>.cls-1{fill:#fff;}</style></defs><title>svg.triconville white</title><g id="Layer_2" data-name="Layer 2"><g id="Layer_1-2" data-name="Layer 1"><g id="Layer_1-2-2" data-name="Layer 1-2"><path class="cls-1" d="M1484.88,264.58c-5.94-1.29-12.05-2.14-17.84-3.91-33.83-10.33-53.59-33.47-60-67.69-4.42-23.7-3.29-47.31,6.9-69.63,12.86-28.12,35.63-43.46,65.8-48.1,24.21-3.72,46.86.62,66.79,15.51,19.14,14.3,29.16,34.14,32.85,57.16,1.8,11.26,1.91,22.77,2.81,34.79H1452c-.7,17.2,15.26,35.94,32.73,39.12a54.72,54.72,0,0,0,24.74-1c10.58-3,18.1-9.63,23.08-19.34.68-1.32,2.28-3,3.46-3.07,14.16-.23,28.31-.14,43.29-.14-1.52,5.26-2.59,10.05-4.31,14.61-11.26,30.31-33.94,46.13-65.38,50.72a35.56,35.56,0,0,0-3.69.93Zm48.63-117.12c-1.1-7.32-5.32-15.34-10.36-20.86-14-15.31-50.89-16.55-65.52,10.05-1.83,3.29-3,6.95-4.64,10.78,27.44,0,54,0,80.52,0Z"/><path class="cls-1" d="M687.68,264.58c-5.69-1.18-11.46-2-17-3.57-35.13-9.68-55.95-32.62-62.71-68.14a122.13,122.13,0,0,1,1.8-55.33c7.66-28.26,25.27-47.79,53-57.56a104.15,104.15,0,0,1,72.87.73c25.42,9.54,42.27,27.61,50,53.48a118.47,118.47,0,0,1-.14,70.48c-10.33,33-33.92,51.42-67.47,58.06-3.12.62-6.25,1.18-9.37,1.8C701.72,264.58,694.69,264.58,687.68,264.58Zm55.53-95c-1.27-7.57-1.89-15.28-3.91-22.66-4.95-17.93-18.41-29.36-35.15-30.71-20.86-1.72-36.28,5.71-44,22.46-9.32,20.35-9.37,41.29.11,61.58,7.8,16.66,22.21,23.14,40.11,22.49,16.83-.59,29.13-8.42,36.28-23.76,4.35-9.27,5.83-19.13,6.56-29.4Z"/><path class="cls-1" d="M495.61,264.58c-5.69-1.15-11.46-2.05-17.06-3.49-34.9-8.89-58.26-34.93-63.67-70.31-2.9-18.94-2.62-37.74,3.1-56.09,10.22-32.85,33.3-51.7,66.59-58.52,19.39-4,38.73-3,57.22,4.59,30.12,12.3,46,35.83,52,66.82.31,1.55.51,3.12.84,5.12H548.91c-1.72-4.7-3-9.49-5.15-13.88-7-14.52-18.86-22-35.07-22.77-17.34-.82-31.8,4.84-39.83,20.72-10.81,21.39-10.7,43.57-.08,65,7.6,15.37,24.12,22.88,42.42,20.77s30.88-13.17,36-31.52c.42-1.55.79-3.1,1.27-4.87h45.82c-4.19,36.17-26.91,68.51-69.18,76.58l-9.4,1.8Z"/><path class="cls-1" d="M1634,29.73c-2.39.31-4.78.59-7.68,1v-20c-.31-.06-.62-.11-.93-.14-1.8,5.57-3.72,11.12-5.38,16.72-.68,2.25-1.6,3.29-4.19,3.29s-3.46-1.21-4.11-3.41a87.31,87.31,0,0,0-6.08-15.76v18.7h-7.15V.41h11c2,6.36,4,12.83,6.47,20.52,2-6.45,3.86-11.68,5.15-17,.79-3.26,2.42-4.17,5.52-3.88,2.45.23,5,0,7.43,0Z"/><path class="cls-1" d="M810,79.35h50.38V103c5.18-5.26,9.71-10.81,15.17-15.2C901,67.2,941.38,69.84,962.38,93.26c10.39,11.57,15.2,25.67,15.37,40.78.45,41.32.2,82.64.2,124a12.79,12.79,0,0,1-.23,1.63H927.31v-5c0-33.16.08-66.34-.08-99.5a58,58,0,0,0-2-15.45c-3.57-12.52-14.13-20.49-27.19-20.83a54.57,54.57,0,0,0-14.75,1.29c-14.24,3.69-22.83,16.18-22.85,32.82-.08,33.75,0,67.49,0,101.24v5.49H810Z"/><path class="cls-1" d="M204.22,25.73V73.41H130.11v189h-56V73.52H0V25.73Z"/><path class="cls-1" d="M983.1,79.1h4.67c14.33,0,28.65.11,43-.08,3.46-.06,5,.9,6.16,4.33,12.33,36.56,24.88,73.07,37.38,109.6.45,1.29.93,2.59,1.74,4.81.87-2.31,1.44-3.74,1.94-5.18q18.83-54.77,37.57-109.52c1-3,2.28-4.08,5.49-4,14.61.17,29.22.08,43.85.08,1.29,0,2.56.14,4.31.25-4.59,12-9,23.64-13.51,35.27q-27.1,70.29-54.1,140.62c-1.44,3.77-3.26,5-7.26,4.84-12.72-.28-25.42-.17-38.14-.06-2.62,0-3.8-.84-4.73-3.29q-33.6-87.13-67.35-174.25C983.74,81.6,983.55,80.65,983.1,79.1Z"/><path class="cls-1" d="M262.28,259.79H211.87V79.4h50.32V108C269,94.32,275.9,81.12,291.66,76.28c12.33-3.8,24.74-2.7,37.12.65v55.48a56.71,56.71,0,0,1-6-1.8,61.13,61.13,0,0,0-35.89-4.81c-11.74,2-19.25,9-21.81,20.43a107.21,107.21,0,0,0-2.7,22.43c-.31,28.65-.14,57.3-.14,86C262.28,256.19,262.28,257.77,262.28,259.79Z"/><path class="cls-1" d="M1385.36,259.71H1335.2V35.39h50.16Z"/><path class="cls-1" d="M1308.26,35.36V259.6h-50.13V35.36Z"/><path class="cls-1" d="M393.53,259.71H343.32V79.38h50.21Z"/><path class="cls-1" d="M1180.4,79.38h50V259.65h-50Z"/><path class="cls-1" d="M367.89,60.27c-17.11-.06-30.12-13.09-30.06-30.14s13.34-30,30.82-30C385.37.21,399.1,13.91,399,30.41,398.87,47.18,385.2,60.33,367.89,60.27Z"/><path class="cls-1" d="M1235.9,30.27c0,17-13.31,30-30.74,30-17.23,0-30.12-12.86-30.17-30S1188.08.16,1205.56.18A30.07,30.07,0,0,1,1235.9,30Z"/><path class="cls-1" d="M1580,30.13V6.4h-9.12V.32h25.61v5.8h-9.09v24Z"/></g></g></g></svg>